<svg xmlns="http://www.w3.org/2000/svg" viewBox="0 0 100 100" width="100px" height="100px"><path fill="#c8ede6" d="M87.234,55.551c0.3-0.616,0.566-1.264,0.796-1.943c2.633-7.77-1.349-17.078-9.733-19.325 C77.391,22.9,69.391,15.09,60.356,13.758c-10.341-1.525-19.814,5.044-22.966,15.485c-3.799-1.346-7.501-1.182-10.99,0.857 c-1.583,0.732-3.031,1.812-4.33,3.233c-1.907,2.086-3.147,4.719-3.652,7.495c-0.748,0.118-1.483,0.236-2.176,0.484 c-4.04,1.449-6.589,4.431-7.288,8.923c-0.435,2.797,0.443,5.587,0.933,6.714c1.935,4.455,6.422,6.98,10.981,6.312 c0.227-0.033,0.557,0.069,0.752,0.233c0.241,7.12,3.698,13.417,8.884,17.014c8.321,5.772,19.027,3.994,25.781-3.921 c2.894,2.96,6.338,4.398,10.384,3.876c4.023-0.519,7.147-2.739,9.426-6.349c1.053,0.283,2.051,0.691,3.083,0.804 c4.042,0.442,7.297-1.184,9.732-4.8c0.083-0.124,0.203-0.219,0.306-0.328c0.348-0.798,0.696-1.596,1.044-2.394 c0.155-1.211,0.429-2.423,0.443-3.632C90.742,60.508,89.411,57.54,87.234,55.551z"/><path fill="#fff" d="M16.899 47H6.869c-.276 0-.5-.224-.5-.5s.224-.5.5-.5h10.03c.276 0 .5.224.5.5S17.176 47 16.899 47zM20.28 46.5c0-.276-.224-.5-.5-.5h-1.446c-.276 0-.5.224-.5.5s.224.5.5.5h1.446C20.057 47 20.28 46.776 20.28 46.5zM24.335 46.5c0-.276-.224-.5-.5-.5h-2.546c-.276 0-.5.224-.5.5s.224.5.5.5h2.546C24.112 47 24.335 46.776 24.335 46.5zM24.335 48.5c0-.276-.224-.5-.5-.5h-9.616c-.276 0-.5.224-.5.5s.224.5.5.5h9.616C24.112 49 24.335 48.776 24.335 48.5zM12.987 48.5c0-.276-.224-.5-.5-.5h-.58c-.276 0-.5.224-.5.5s.224.5.5.5h.58C12.763 49 12.987 48.776 12.987 48.5zM10.611 48.5c0-.276-.224-.5-.5-.5H8.654c-.276 0-.5.224-.5.5s.224.5.5.5h1.457C10.387 49 10.611 48.776 10.611 48.5zM19.746 44.5c0-.276-.224-.5-.5-.5h-5.027c-.276 0-.5.224-.5.5s.224.5.5.5h5.027C19.523 45 19.746 44.776 19.746 44.5zM19.746 42.5c0-.276-.224-.5-.5-.5h-1.257c-.276 0-.5.224-.5.5s.224.5.5.5h1.257C19.523 43 19.746 42.776 19.746 42.5zM16.477 50.5c0-.276-.224-.5-.5-.5h-1.758c-.276 0-.5.224-.5.5s.224.5.5.5h1.758C16.254 51 16.477 50.776 16.477 50.5zM86.744 67h-10.03c-.276 0-.5-.224-.5-.5s.224-.5.5-.5h10.031c.276 0 .5.224.5.5S87.021 67 86.744 67zM90.125 66.5c0-.276-.224-.5-.5-.5h-1.446c-.276 0-.5.224-.5.5s.224.5.5.5h1.446C89.902 67 90.125 66.776 90.125 66.5zM94.18 66.5c0-.276-.224-.5-.5-.5h-2.546c-.276 0-.5.224-.5.5s.224.5.5.5h2.546C93.956 67 94.18 66.776 94.18 66.5zM92.154 62.5c0-.276-.224-.5-.5-.5h-9.616c-.276 0-.5.224-.5.5s.224.5.5.5h9.616C91.93 63 92.154 62.776 92.154 62.5zM80.806 62.5c0-.276-.224-.5-.5-.5h-.58c-.276 0-.5.224-.5.5s.224.5.5.5h.58C80.583 63 80.806 62.776 80.806 62.5zM78.429 62.5c0-.276-.224-.5-.5-.5h-1.456c-.276 0-.5.224-.5.5s.224.5.5.5h1.456C78.206 63 78.429 62.776 78.429 62.5zM89.591 64.5c0-.276-.224-.5-.5-.5h-5.027c-.276 0-.5.224-.5.5s.224.5.5.5h5.027C89.367 65 89.591 64.776 89.591 64.5zM89.591 62.5c0-.276-.224-.5-.5-.5h-1.257c-.276 0-.5.224-.5.5s.224.5.5.5h1.257C89.367 63 89.591 62.776 89.591 62.5zM83.108 64.5c0-.276-.224-.5-.5-.5H80.85c-.276 0-.5.224-.5.5s.224.5.5.5h1.758C82.885 65 83.108 64.776 83.108 64.5z"/><path fill="#fdfcef" d="M73.674,42.423c0,0-11.691,0-11.762,0c-2.7,0-4.888-2.189-4.888-4.889 c0-2.355,1.666-4.321,3.884-4.784c-0.026-0.206-0.043-0.415-0.043-0.628c0-2.796,2.267-5.063,5.063-5.063 c1.651,0,3.113,0.794,4.037,2.017c0.236-3.113,3.017-5.514,6.27-5.116c2.379,0.291,4.346,2.13,4.784,4.486 c0.14,0.756,0.126,1.489-0.014,2.177c0.638-0.687,1.546-1.119,2.557-1.119c1.85,0,3.361,1.441,3.48,3.261 c0.84-0.186,1.754-0.174,2.717,0.188c1.84,0.691,3.15,2.423,3.227,4.387c0.109,2.789-2.12,5.085-4.885,5.085 c-0.21,0-0.948,0-1.118,0H76.832"/><path fill="#472b29" d="M61.912,42.923h11.762c0.276,0,0.5-0.224,0.5-0.5s-0.224-0.5-0.5-0.5H61.912 c-2.42,0-4.389-1.969-4.389-4.389c0-2.066,1.466-3.873,3.486-4.295c0.255-0.053,0.426-0.293,0.394-0.552 c-0.023-0.186-0.039-0.374-0.039-0.565c0-2.517,2.047-4.563,4.562-4.563c1.438,0,2.765,0.663,3.638,1.818 c0.125,0.166,0.338,0.237,0.54,0.178c0.199-0.059,0.342-0.234,0.357-0.441c0.104-1.377,0.779-2.671,1.85-3.549 c1.083-0.888,2.456-1.282,3.86-1.109c2.166,0.266,3.956,1.943,4.353,4.081c0.124,0.667,0.12,1.335-0.013,1.986 c-0.044,0.22,0.062,0.442,0.262,0.544c0.2,0.104,0.443,0.06,0.595-0.104c0.575-0.618,1.353-0.959,2.19-0.959 c1.569,0,2.878,1.228,2.981,2.794c0.01,0.146,0.082,0.279,0.199,0.366c0.117,0.089,0.268,0.12,0.408,0.089 c0.841-0.185,1.637-0.132,2.433,0.167c1.669,0.627,2.835,2.209,2.903,3.938c0.047,1.207-0.387,2.35-1.221,3.218 c-0.835,0.869-1.959,1.348-3.164,1.348H76.828c-0.276,0-0.5,0.224-0.5,0.5s0.224,0.5,0.5,0.5h11.271 c1.479,0,2.858-0.588,3.884-1.654c1.025-1.066,1.558-2.469,1.5-3.95c-0.083-2.126-1.51-4.069-3.55-4.835 c-0.8-0.301-1.626-0.398-2.468-0.299c-0.377-1.822-1.998-3.182-3.905-3.182c-0.684,0-1.354,0.18-1.944,0.51 c0-0.386-0.035-0.772-0.106-1.159c-0.477-2.562-2.621-4.573-5.215-4.891c-1.679-0.205-3.32,0.266-4.616,1.328 c-1.003,0.823-1.716,1.951-2.038,3.193c-1.012-0.916-2.319-1.426-3.714-1.426c-3.067,0-5.562,2.496-5.562,5.563 c0,0.083,0.002,0.166,0.007,0.248c-2.254,0.673-3.848,2.776-3.848,5.164C56.523,40.507,58.94,42.923,61.912,42.923z"/><path fill="#fdfcef" d="M76.507,31.655c1.808-0.119,3.365,1.13,3.476,2.789c0.014,0.206,0.005,0.409-0.025,0.606 c0.349-0.394,0.865-0.661,1.458-0.7c1.085-0.071,2.022,0.645,2.158,1.62c0.197-0.054,0.403-0.09,0.616-0.104 c1.582-0.104,2.944,0.989,3.042,2.441"/><path fill="#472b29" d="M87.231,38.556c0.006,0,0.012,0,0.017-0.001c0.138-0.009,0.242-0.128,0.233-0.266 c-0.107-1.587-1.588-2.789-3.308-2.674c-0.137,0.009-0.273,0.026-0.409,0.053c-0.274-0.968-1.256-1.645-2.366-1.567 c-0.425,0.027-0.823,0.159-1.164,0.382c0-0.019-0.002-0.037-0.003-0.056c-0.12-1.795-1.787-3.16-3.742-3.021 c-0.138,0.009-0.242,0.128-0.233,0.266c0.009,0.138,0.124,0.255,0.266,0.232c1.651-0.105,3.108,1.037,3.21,2.557 c0.012,0.184,0.004,0.37-0.023,0.553c-0.017,0.109,0.041,0.217,0.141,0.264s0.219,0.022,0.293-0.061 c0.323-0.365,0.78-0.584,1.287-0.617c0.951-0.034,1.775,0.556,1.894,1.404c0.01,0.071,0.05,0.135,0.11,0.175 c0.06,0.039,0.133,0.051,0.204,0.032c0.187-0.051,0.377-0.083,0.567-0.097c1.44-0.092,2.687,0.896,2.775,2.209 C86.991,38.455,87.101,38.556,87.231,38.556z"/><g><path fill="#fdfcef" d="M59.932,33.323c1.699-0.801,3.664-0.234,4.389,1.267c0.09,0.186,0.157,0.379,0.201,0.574"/><path fill="#472b29" d="M64.522,35.414c0.018,0,0.037-0.002,0.056-0.006c0.134-0.031,0.219-0.165,0.188-0.3 c-0.049-0.217-0.123-0.428-0.219-0.627c-0.783-1.621-2.902-2.239-4.721-1.385c-0.125,0.06-0.179,0.208-0.12,0.333 c0.059,0.126,0.209,0.176,0.333,0.12c1.574-0.744,3.394-0.227,4.058,1.149c0.08,0.165,0.141,0.34,0.182,0.521 C64.305,35.336,64.408,35.414,64.522,35.414z"/></g><g><path fill="#f7d4d5" d="M73,51.643c0-1.817-0.795-3.446-2.052-4.567C71.612,46.096,72,44.915,72,43.643 c0-2.998-2.156-5.486-5.001-6.015c-0.008-3.321-2.658-6.021-5.96-6.108c-0.055-0.001-0.11-0.002-0.165-0.002 c-0.367,0-0.725,0.038-1.075,0.1c-0.545-1.892-2.246-3.294-4.301-3.349c-0.041-0.001-0.083-0.001-0.124-0.001 c-1.994,0-3.678,1.269-4.327,3.037c-0.339,0.59-0.548,1.265-0.548,1.995v35.563c0,1.626,0.891,3.031,2.202,3.794 c0.756,0.538,1.674,0.862,2.673,0.862c1.586,0,2.982-0.8,3.816-2.016c0.103,0.004,0.205,0.016,0.309,0.016 c4.142,0,7.5-3.358,7.5-7.5c0-0.533-0.059-1.053-0.164-1.554c0.177,0.026,0.355,0.054,0.539,0.054 c2.002,0,3.625-1.623,3.625-3.625c0-0.811-0.277-1.551-0.727-2.155C71.917,55.639,73,53.768,73,51.643z"/><path fill="#472b29" d="M55.375,74.218c-1.104,0-2.168-0.343-3.079-0.991c-1.519-0.881-2.496-2.567-2.496-4.365V33.299 c0-0.796,0.206-1.565,0.611-2.291c0.783-2.061,2.771-3.44,4.964-3.44l0.141,0.002c2.114,0.056,3.956,1.349,4.755,3.277 c0.205-0.02,0.405-0.029,0.604-0.029l0.178,0.002c3.531,0.095,6.339,2.793,6.623,6.246c2.942,0.801,5.024,3.483,5.024,6.577 c0,1.173-0.297,2.311-0.862,3.322c1.189,1.263,1.862,2.937,1.862,4.678c0,2.055-0.92,3.979-2.491,5.271 c0.323,0.614,0.491,1.287,0.491,1.979c0,2.289-1.788,4.169-4.041,4.315c0.027,0.271,0.041,0.541,0.041,0.81 c0,4.512-3.662,8.184-8.169,8.2C58.523,73.477,56.997,74.218,55.375,74.218z M55.375,28.968c-1.629,0-3.104,1.036-3.67,2.578 l-0.05,0.107c-0.303,0.525-0.455,1.079-0.455,1.646v35.563c0,1.321,0.693,2.514,1.854,3.19c1.883,1.331,4.363,0.797,5.559-0.945 l0.221-0.322l0.513,0.026c0.051,0.003,0.102,0.007,0.153,0.007c3.75,0,6.8-3.05,6.8-6.8c0-0.466-0.05-0.939-0.148-1.409 l-0.208-0.985l0.996,0.148c0.153,0.022,0.292,0.046,0.436,0.046c1.613,0,2.925-1.312,2.925-2.925c0-0.62-0.203-1.221-0.588-1.737 l-0.439-0.591l0.612-0.409c1.513-1.011,2.415-2.698,2.415-4.513c0-1.539-0.662-3.014-1.817-4.045l-0.457-0.408l0.344-0.507 c0.608-0.898,0.931-1.95,0.931-3.04c0-2.608-1.862-4.849-4.429-5.326l-0.57-0.106l-0.002-0.58 c-0.007-2.955-2.325-5.332-5.277-5.41l-0.146-0.002c-0.303,0-0.614,0.029-0.952,0.09l-0.621,0.11l-0.175-0.606 c-0.477-1.655-1.942-2.798-3.646-2.842L55.375,28.968z"/><path fill="#472b29" d="M67.001 65.342c-.02 0-.039-.001-.06-.002-.385-.032-.67-.371-.639-.756.018-.221.389-5.429-4.15-8.021-.335-.191-.452-.619-.26-.955.19-.334.615-.452.955-.26 5.327 3.043 4.872 9.099 4.85 9.354C67.666 65.067 67.36 65.342 67.001 65.342zM72.841 50.749c-.298 0-.575-.192-.669-.492-.047-.151-1.206-3.719-4.913-4.226-.383-.052-.651-.405-.599-.788.053-.382.398-.661.788-.599 4.606.629 6.005 5.014 6.062 5.2.113.368-.094.759-.462.873C72.979 50.739 72.909 50.749 72.841 50.749zM70.979 59.476c-.383 0-.695-.309-.7-.691-.001-.078-.055-1.687-1.497-2.341-.353-.16-.508-.575-.349-.927.16-.353.574-.506.927-.349 2.272 1.031 2.318 3.497 2.319 3.602.003.387-.309.703-.694.706C70.983 59.476 70.981 59.476 70.979 59.476zM56.995 33.671c-.212 0-.421-.096-.559-.276-.233-.308-.174-.747.134-.981 3.706-2.813 7.79-.7 7.963-.608.341.181.47.603.29.944-.179.342-.602.477-.944.293-.14-.072-3.481-1.78-6.461.486C57.291 33.624 57.143 33.671 56.995 33.671z"/><path fill="#472b29" d="M59.988 59.635c-.157 0-.312-.074-.409-.212-.158-.226-.104-.537.12-.696.144-.103 3.496-2.555 1.328-7.263-.115-.251-.006-.548.245-.663.249-.113.548-.007.663.245 2.524 5.482-1.619 8.469-1.661 8.498C60.187 59.605 60.087 59.635 59.988 59.635zM59.516 67.965c-1.78 0-3.261-.789-4.117-2.219-.865-1.44-.88-3.261-.039-4.529.154-.231.466-.29.693-.141.23.153.293.463.141.693-.633.954-.608 2.345.063 3.463.745 1.241 2.121 1.87 3.767 1.707.271-.008.519.175.546.45.026.275-.176.52-.45.546C59.914 67.955 59.713 67.965 59.516 67.965z"/><path fill="#84a7d7" d="M55.982,45.35c0.498,0.561,1.065,1.033,1.655,1.402"/><path fill="#472b29" d="M57.638 47.252c-.091 0-.183-.024-.265-.076-.655-.409-1.249-.912-1.765-1.495-.184-.206-.164-.522.043-.705.205-.185.521-.167.705.043.452.51.973.951 1.546 1.31.234.146.306.454.159.688C57.967 47.169 57.804 47.252 57.638 47.252zM54.719 43.736c-.204 0-.396-.126-.47-.329-.583-1.604-.996-3.621.363-6.421.121-.247.421-.353.669-.231s.352.42.231.669c-1.194 2.457-.861 4.164-.324 5.642.095.26-.039.547-.299.641C54.833 43.727 54.775 43.736 54.719 43.736zM50.668 60.83c-.025 0-.051-.002-.076-.006-.273-.041-.461-.296-.419-.569.418-2.752 1.673-5.011 3.531-6.36.223-.162.536-.113.698.11s.113.536-.11.698c-1.641 1.191-2.753 3.217-3.131 5.702C51.124 60.652 50.91 60.83 50.668 60.83z"/><path fill="#84a7d7" d="M57.861,52.931c-0.663,0.051-1.29,0.186-1.877,0.397"/><path fill="#472b29" d="M55.984 53.828c-.205 0-.397-.127-.471-.331-.093-.26.042-.546.302-.64.635-.229 1.311-.371 2.008-.425.245-.028.516.185.537.461.021.275-.186.516-.461.537-.607.046-1.195.17-1.746.368C56.098 53.818 56.04 53.828 55.984 53.828zM61.723 43.681c-.074 0-.148-.017-.22-.051-.248-.121-.351-.421-.229-.669 1.07-2.192.317-4.558-2.066-6.49-.215-.174-.248-.489-.074-.703.174-.215.491-.247.703-.074 2.736 2.218 3.609 5.099 2.336 7.707C62.085 43.577 61.907 43.681 61.723 43.681z"/><path fill="#84a7d7" d="M67.567,51.381c0.523,0.174,1.095,0.29,1.707,0.347"/><path fill="#472b29" d="M69.274,52.229c-0.016,0-0.032-0.001-0.048-0.002c-0.65-0.062-1.262-0.187-1.818-0.371 c-0.262-0.087-0.403-0.37-0.316-0.633c0.088-0.262,0.369-0.404,0.633-0.316c0.483,0.161,1.021,0.271,1.596,0.324 c0.274,0.026,0.477,0.27,0.451,0.545C69.747,52.034,69.529,52.229,69.274,52.229z"/><path fill="#84a7d7" d="M64.076,47.526c0.174,1.289,0.835,2.298,1.844,2.987"/><path fill="#472b29" d="M65.92,51.014c-0.098,0-0.196-0.028-0.282-0.087c-1.157-0.791-1.868-1.943-2.057-3.333 c-0.037-0.273,0.154-0.525,0.428-0.563c0.28-0.051,0.526,0.153,0.563,0.428c0.151,1.117,0.7,2.006,1.631,2.642 c0.228,0.156,0.286,0.467,0.131,0.695C66.236,50.938,66.079,51.014,65.92,51.014z"/><path fill="#f7d4d5" d="M28,51.643c0-1.817,0.795-3.446,2.052-4.567C29.388,46.096,29,44.915,29,43.643 c0-2.998,2.156-5.486,5.001-6.015c0.008-3.321,2.658-6.021,5.96-6.108c0.055-0.001,0.11-0.002,0.165-0.002 c0.367,0,0.725,0.038,1.075,0.1c0.545-1.892,2.246-3.294,4.301-3.349c0.041-0.001,0.083-0.001,0.124-0.001 c1.994,0,3.678,1.269,4.327,3.037c0.339,0.59,0.548,1.265,0.548,1.995v35.563c0,1.626-0.891,3.031-2.202,3.794 c-0.756,0.538-1.674,0.862-2.673,0.862c-1.586,0-2.982-0.8-3.816-2.016c-0.103,0.004-0.205,0.016-0.309,0.016 c-4.142,0-7.5-3.358-7.5-7.5c0-0.533,0.059-1.053,0.164-1.554c-0.177,0.026-0.355,0.054-0.539,0.054 c-2.002,0-3.625-1.623-3.625-3.625c0-0.811,0.277-1.551,0.727-2.155C29.083,55.639,28,53.768,28,51.643z"/><path fill="#472b29" d="M45.625,74.218c-1.622,0-3.148-0.741-4.156-2c-4.507-0.017-8.169-3.688-8.169-8.2 c0-0.269,0.014-0.539,0.041-0.81c-2.253-0.146-4.041-2.026-4.041-4.315c0-0.692,0.168-1.365,0.491-1.979 c-1.571-1.291-2.491-3.216-2.491-5.271c0-1.741,0.673-3.415,1.862-4.678c-0.565-1.012-0.862-2.149-0.862-3.322 c0-3.094,2.082-5.776,5.024-6.577c0.284-3.453,3.091-6.151,6.617-6.246l0.184-0.002c0.199,0,0.399,0.01,0.604,0.029 c0.799-1.929,2.641-3.222,4.753-3.277l0.143-0.002c2.193,0,4.181,1.38,4.964,3.44c0.405,0.726,0.611,1.495,0.611,2.291v35.563 c0,1.798-0.978,3.484-2.55,4.399C47.793,73.875,46.729,74.218,45.625,74.218z M42.166,70.784l0.221,0.322 c0.734,1.071,1.945,1.711,3.238,1.711c0.811,0,1.595-0.253,2.267-0.731c1.215-0.711,1.908-1.903,1.908-3.225V33.299 c0-0.566-0.152-1.12-0.455-1.646l-0.05-0.107c-0.566-1.542-2.041-2.578-3.67-2.578l-0.107,0.002 c-1.702,0.044-3.168,1.187-3.645,2.842l-0.175,0.606l-0.621-0.11c-0.338-0.061-0.649-0.09-0.952-0.09l-0.152,0.002 c-2.946,0.078-5.265,2.455-5.271,5.41l-0.002,0.58l-0.57,0.106c-2.566,0.478-4.429,2.718-4.429,5.326 c0,1.09,0.322,2.142,0.931,3.04l0.344,0.507l-0.457,0.408c-1.155,1.031-1.817,2.506-1.817,4.045c0,1.814,0.902,3.502,2.415,4.513 l0.612,0.409l-0.439,0.591c-0.385,0.517-0.588,1.117-0.588,1.737c0,1.613,1.312,2.925,2.925,2.925 c0.144,0,0.282-0.023,0.421-0.044l0.995-0.148l-0.192,0.983c-0.099,0.47-0.148,0.943-0.148,1.409c0,3.75,3.05,6.8,6.8,6.8 c0.052,0,0.103-0.004,0.153-0.007L42.166,70.784z"/><path fill="#472b29" d="M33.999 65.342c-.359 0-.665-.274-.696-.64-.022-.256-.478-6.312 4.85-9.354.339-.191.765-.074.955.26.192.336.075.764-.26.955-4.539 2.593-4.168 7.801-4.15 8.021.031.385-.254.724-.639.756C34.038 65.341 34.019 65.342 33.999 65.342zM28.159 50.749c-.068 0-.139-.01-.207-.031-.368-.114-.575-.505-.462-.873.057-.187 1.455-4.571 6.062-5.2.387-.061.736.217.788.599.053.383-.216.736-.599.788-3.707.507-4.866 4.074-4.913 4.226C28.734 50.557 28.457 50.749 28.159 50.749zM30.021 59.476c-.002 0-.004 0-.006 0-.386-.003-.697-.319-.694-.706.001-.104.047-2.57 2.319-3.602.352-.157.767-.004.927.349.159.352.004.767-.349.927-1.467.666-1.497 2.321-1.497 2.338C30.718 59.166 30.404 59.476 30.021 59.476zM44.005 33.671c-.147 0-.296-.047-.423-.143-2.995-2.277-6.425-.505-6.459-.487-.343.183-.767.052-.946-.29-.182-.342-.052-.766.29-.946.173-.092 4.259-2.203 7.963.608.308.234.367.674.134.981C44.426 33.575 44.217 33.671 44.005 33.671z"/><path fill="#472b29" d="M41.012 59.635c-.099 0-.198-.029-.286-.091-.042-.029-4.186-3.016-1.661-8.498.115-.252.415-.358.663-.245.251.115.36.412.245.663-2.168 4.708 1.185 7.16 1.328 7.263.225.159.278.471.12.696C41.323 59.561 41.169 59.635 41.012 59.635zM41.484 67.965c-.197 0-.398-.01-.603-.029-.274-.026-.477-.271-.45-.546.027-.275.281-.46.546-.45 1.644.16 3.021-.466 3.767-1.707.671-1.118.695-2.509.063-3.463-.152-.23-.09-.54.141-.693.228-.15.539-.092.693.141.841 1.269.826 3.089-.039 4.529C44.745 67.175 43.265 67.965 41.484 67.965z"/><path fill="#84a7d7" d="M45.018,45.35c-0.498,0.561-1.065,1.033-1.655,1.402"/><path fill="#472b29" d="M43.362,47.252c-0.166,0-0.329-0.083-0.424-0.235c-0.146-0.234-0.075-0.542,0.159-0.688 c0.573-0.358,1.094-0.8,1.546-1.31c0.183-0.21,0.499-0.228,0.705-0.043c0.207,0.183,0.227,0.499,0.043,0.705 c-0.516,0.583-1.109,1.086-1.765,1.495C43.545,47.228,43.453,47.252,43.362,47.252z"/><g><path fill="#472b29" d="M46.281,43.736c-0.057,0-0.114-0.01-0.171-0.03c-0.26-0.094-0.394-0.381-0.299-0.641 c0.537-1.478,0.87-3.185-0.324-5.642c-0.12-0.249-0.017-0.548,0.231-0.669c0.249-0.12,0.548-0.016,0.669,0.231 c1.359,2.8,0.946,4.817,0.363,6.421C46.678,43.61,46.485,43.736,46.281,43.736z"/></g><g><path fill="#472b29" d="M50.332,60.83c-0.242,0-0.456-0.178-0.493-0.425c-0.378-2.485-1.49-4.511-3.131-5.702 c-0.224-0.162-0.272-0.475-0.11-0.698s0.476-0.272,0.698-0.11c1.858,1.35,3.113,3.608,3.531,6.36 c0.042,0.273-0.146,0.528-0.419,0.569C50.383,60.828,50.357,60.83,50.332,60.83z"/></g><g><path fill="#84a7d7" d="M43.139,52.931c0.663,0.051,1.29,0.186,1.877,0.397"/><path fill="#472b29" d="M45.016,53.828c-0.057,0-0.113-0.01-0.169-0.029c-0.551-0.198-1.139-0.322-1.746-0.368 c-0.275-0.021-0.481-0.262-0.461-0.537c0.021-0.276,0.286-0.472,0.537-0.461c0.697,0.054,1.373,0.196,2.008,0.425 c0.26,0.094,0.395,0.38,0.302,0.64C45.413,53.701,45.221,53.828,45.016,53.828z"/></g><g><path fill="#472b29" d="M39.277,43.681c-0.185,0-0.362-0.104-0.449-0.28c-1.273-2.608-0.4-5.489,2.336-7.707 c0.211-0.174,0.528-0.142,0.703,0.074c0.174,0.214,0.141,0.529-0.074,0.703c-2.384,1.933-3.137,4.298-2.066,6.49 c0.121,0.248,0.019,0.548-0.229,0.669C39.426,43.664,39.352,43.681,39.277,43.681z"/></g><g><path fill="#84a7d7" d="M33.433,51.381c-0.523,0.174-1.095,0.29-1.707,0.347"/><path fill="#472b29" d="M31.726,52.229c-0.255,0-0.473-0.194-0.497-0.453c-0.025-0.275,0.177-0.519,0.451-0.545 c0.575-0.054,1.112-0.163,1.596-0.324c0.263-0.087,0.545,0.055,0.633,0.316c0.087,0.263-0.055,0.546-0.316,0.633 c-0.557,0.185-1.168,0.31-1.818,0.371C31.758,52.228,31.741,52.229,31.726,52.229z"/></g><g><path fill="#84a7d7" d="M36.924,47.526c-0.174,1.289-0.835,2.298-1.844,2.987"/><path fill="#472b29" d="M35.08,51.014c-0.159,0-0.316-0.076-0.413-0.218c-0.155-0.229-0.097-0.539,0.131-0.695 c0.931-0.636,1.479-1.524,1.631-2.642c0.036-0.274,0.282-0.477,0.563-0.428c0.273,0.037,0.465,0.289,0.428,0.563 c-0.188,1.39-0.899,2.542-2.057,3.333C35.276,50.985,35.178,51.014,35.08,51.014z"/></g></g><g><path fill="#fdfcef" d="M30.178,67.287c1.883,0,3.517,0,3.54,0c2.11,0,3.821-1.674,3.821-3.739 c0-1.802-1.302-3.305-3.035-3.66c0.02-0.158,0.034-0.317,0.034-0.48c0-2.139-1.772-3.873-3.957-3.873 c-1.29,0-2.433,0.607-3.155,1.543c-0.185-2.381-2.358-4.218-4.9-3.913c-1.859,0.223-3.397,1.629-3.739,3.431 c-0.11,0.578-0.098,1.139,0.011,1.665c-0.498-0.525-1.208-0.856-1.998-0.856c-1.446,0-2.627,1.102-2.72,2.494 c-0.657-0.142-1.371-0.133-2.123,0.143c-1.438,0.528-2.462,1.853-2.522,3.356c-0.085,2.133,1.657,3.889,3.818,3.889 c0.164,0,0.741,0,0.874,0h7.934 M23.701,67.287h0.36"/><path fill="#472b29" d="M33.718,67.788h-3.54c-0.276,0-0.5-0.224-0.5-0.5s0.224-0.5,0.5-0.5h3.54 c1.831,0,3.321-1.453,3.321-3.239c0-1.524-1.108-2.858-2.636-3.17c-0.256-0.053-0.429-0.294-0.396-0.554 c0.018-0.137,0.03-0.275,0.03-0.417c0-1.86-1.551-3.373-3.457-3.373c-1.092,0-2.098,0.491-2.76,1.349 c-0.126,0.164-0.341,0.231-0.539,0.174c-0.198-0.06-0.339-0.234-0.355-0.44c-0.079-1.02-0.565-1.944-1.369-2.604 c-0.829-0.68-1.885-0.979-2.973-0.853c-1.646,0.197-3.006,1.442-3.307,3.027c-0.094,0.495-0.091,0.99,0.009,1.472 c0.045,0.219-0.06,0.441-0.258,0.545c-0.197,0.102-0.44,0.063-0.594-0.1c-0.428-0.451-1.009-0.7-1.635-0.7 c-1.169,0-2.145,0.891-2.221,2.027c-0.01,0.146-0.082,0.278-0.198,0.366c-0.116,0.087-0.264,0.12-0.406,0.089 c-0.639-0.138-1.243-0.098-1.846,0.125c-1.262,0.463-2.144,1.631-2.195,2.905c-0.035,0.876,0.283,1.709,0.895,2.346 c0.635,0.66,1.496,1.024,2.423,1.024h8.807c0.276,0,0.5,0.224,0.5,0.5s-0.224,0.5-0.5,0.5h-8.807 c-1.185,0-2.331-0.485-3.144-1.331c-0.803-0.836-1.219-1.929-1.173-3.078c0.067-1.675,1.212-3.204,2.849-3.806 c0.61-0.225,1.24-0.304,1.88-0.244c0.344-1.396,1.629-2.424,3.135-2.424c0.493,0,0.977,0.113,1.414,0.323 c0.009-0.242,0.037-0.484,0.083-0.727c0.381-2.009,2.096-3.585,4.17-3.833c1.365-0.167,2.685,0.218,3.726,1.071 c0.748,0.613,1.278,1.409,1.546,2.302c0.791-0.648,1.786-1.007,2.842-1.007c2.458,0,4.457,1.962,4.457,4.373 c0,0.034,0,0.068-0.001,0.103c1.764,0.555,3.003,2.188,3.003,4.038C38.039,65.886,36.101,67.788,33.718,67.788z M24.061,67.788 h-0.36c-0.276,0-0.5-0.224-0.5-0.5s0.224-0.5,0.5-0.5h0.36c0.276,0,0.5,0.224,0.5,0.5S24.337,67.788,24.061,67.788z"/><g><path fill="#472b29" d="M32.011,61.984c-0.018,0-0.036-0.002-0.055-0.006c-0.135-0.03-0.22-0.164-0.189-0.299 c0.037-0.164,0.094-0.325,0.17-0.479c0.604-1.224,2.272-1.677,3.722-1.007c0.125,0.058,0.18,0.206,0.122,0.331 c-0.058,0.126-0.207,0.179-0.332,0.122c-1.201-0.556-2.577-0.208-3.063,0.774c-0.058,0.118-0.102,0.242-0.13,0.367 C32.229,61.905,32.126,61.984,32.011,61.984z"/></g><g><path fill="#472b29" d="M26.852,67.788h-1.107c-0.276,0-0.5-0.224-0.5-0.5s0.224-0.5,0.5-0.5h1.107 c0.276,0,0.5,0.224,0.5,0.5S27.129,67.788,26.852,67.788z"/></g></g></svg>