<svg xmlns="http://www.w3.org/2000/svg" viewBox="0 0 64 64" width="64px" height="64px"><path fill="#85cbf8" d="M40 4A17 17 0 1 0 40 38A17 17 0 1 0 40 4Z"/><path fill="#7bbeeb" d="M40,38c9.389,0,17-7.611,17-17S49.389,4,40,4V38z"/><path fill="#9fddff" d="M40,38c-9.39,0-17-7.61-17-17S30.61,4,40,4c-5.52,0-10,7.61-10,17S34.48,38,40,38z"/><path fill="#faefde" d="M25,49l5,2c2.517,1.008,5.336,0.95,7.81-0.16l2.95-1.33c0.734-0.301,1.22-1.007,1.24-1.8V47.3 c0.006-2.209-1.78-4.005-3.989-4.011c-0.1,0-0.201,0.003-0.301,0.011l-2.19,0.16c-1.032,0.075-2.065-0.118-3-0.56l-9.41-4.44 c-2.028-0.954-4.284-1.322-6.51-1.06L4.77,38.79c-1.014,0.117-1.777,0.979-1.77,2v12.65c0.001,1.105,0.897,1.999,2.002,1.998 c0.161,0,0.322-0.02,0.478-0.058L12,53.74c1.909-0.479,3.928-0.236,5.67,0.68l12.63,6.63c2.321,1.213,5.089,1.213,7.41,0L59,50 c1.227-0.629,1.998-1.891,2-3.27l0,0c-0.002-2.032-1.651-3.679-3.683-3.677c-0.309,0-0.617,0.04-0.917,0.117L42,46.93"/><path fill="#efd8be" d="M40.49,55.64l-2.78,1.44c-2.321,1.213-5.089,1.213-7.41,0l-12.59-6.66 c-1.753-0.927-3.788-1.169-5.71-0.68L3,52v1.44c0.001,1.105,0.897,1.999,2.002,1.998c0.161,0,0.322-0.02,0.478-0.058L12,53.74 c1.909-0.479,3.928-0.236,5.67,0.68l12.63,6.63c2.321,1.213,5.089,1.213,7.41,0l7.1-3.68l-0.34-0.6 C43.657,55.392,41.906,54.895,40.49,55.64z"/><path fill="#fff7f0" d="M23.12,42.47l9.41,4.44c0.935,0.442,1.968,0.635,3,0.56l2.19-0.16 c1.466-0.097,2.867,0.617,3.65,1.86l0.1,0.18c0.399,0.897,1.391,1.372,2.34,1.12L60.91,46c-0.399-1.987-2.333-3.275-4.321-2.876 c-0.067,0.013-0.133,0.029-0.199,0.046L42,46.93l0,0c-0.201-2.159-2.086-3.765-4.25-3.62l-2.19,0.16 c-1.032,0.075-2.065-0.118-3-0.56l-9.41-4.44c-2.039-0.965-4.309-1.336-6.55-1.07L4.77,38.79c-1.014,0.117-1.777,0.979-1.77,2V43 l13.6-1.6C18.831,41.14,21.09,41.51,23.12,42.47z"/><path fill="#8d6c9f" d="M9 41H7c-.552 0-1 .448-1 1s.448 1 1 1h2c.552 0 1-.448 1-1S9.552 41 9 41zM9 46H7c-.552 0-1 .448-1 1s.448 1 1 1h2c.552 0 1-.448 1-1S9.552 46 9 46zM9 51H7c-.552 0-1 .448-1 1s.448 1 1 1h2c.552 0 1-.448 1-1S9.552 51 9 51z"/><path fill="#8d6c9f" d="M60.18,43.05c-1.134-0.879-2.61-1.185-4-0.83L42.74,45.7c-0.728-2.161-2.826-3.555-5.1-3.39 l-2.19,0.16C34.607,42.523,33.764,42.361,33,42l-9.41-4.44c-2.202-1.038-4.652-1.436-7.07-1.15L4.65,37.8 c-1.519,0.178-2.66,1.471-2.65,3v12.64c0,1.657,1.343,3,3,3c0.246,0,0.491-0.03,0.73-0.09l6.56-1.64c1.683-0.427,3.465-0.213,5,0.6 l12.59,6.63c2.612,1.366,5.728,1.366,8.34,0l21.3-11c2.296-1.198,3.187-4.031,1.989-6.328c-0.311-0.597-0.747-1.119-1.279-1.532 L60.18,43.05z M58.55,49.14l-21.3,11c-2.03,1.06-4.45,1.06-6.48,0l-12.59-6.6c-1.957-1.031-4.224-1.305-6.37-0.77l-6.57,1.64 c-0.536,0.133-1.078-0.194-1.211-0.73C4.007,53.592,3.997,53.501,4,53.41V40.78c-0.004-0.509,0.375-0.939,0.88-1l11.83-1.39 c2.054-0.237,4.134,0.109,6,1l9.41,4.44c1.089,0.51,2.29,0.734,3.49,0.65l2.19-0.16c1.652-0.122,3.09,1.12,3.212,2.772 c0.006,0.076,0.008,0.152,0.008,0.228v0.41c-0.001,0.393-0.232,0.749-0.59,0.91l-3,1.33c-2.219,0.987-4.741,1.041-7,0.15l-5-2 c-0.514-0.204-1.096,0.046-1.3,0.56c-0.204,0.514,0.046,1.096,0.56,1.3l0,0l5,2c2.773,1.104,5.875,1.039,8.6-0.18l3-1.33 c1.062-0.505,1.73-1.584,1.71-2.76l13.65-3.54c1.409-0.454,2.919,0.32,3.373,1.729c0.42,1.304-0.211,2.714-1.463,3.271L58.55,49.14 z"/><path fill="none" stroke="#8d6c9f" stroke-miterlimit="10" stroke-width="2" d="M40 4A17 17 0 1 0 40 38A17 17 0 1 0 40 4Z"/><path fill="none" stroke="#8d6c9f" stroke-miterlimit="10" stroke-width="2" d="M28.5 8.706C31.527 10.751 35.565 12 40 12c4.582 0 8.74-1.333 11.797-3.5M28.5 33.794C31.527 31.749 35.565 30.5 40 30.5c4.582 0 8.74 1.333 11.797 3.5"/><path fill="none" stroke="#8d6c9f" stroke-linecap="round" stroke-linejoin="round" stroke-miterlimit="10" stroke-width="2" d="M49.56 16C48.304 9.051 44.499 4 40 4s-8.304 5.051-9.56 12M30.44 26c1.256 6.949 5.061 12 9.56 12s8.304-5.051 9.56-12"/><path fill="#8d6c9f" d="M40 19c-.552 0-1 .448-1 1v2c0 .552.448 1 1 1s1-.448 1-1v-2C41 19.448 40.552 19 40 19zM35 19c-.552 0-1 .448-1 1v2c0 .552.448 1 1 1s1-.448 1-1v-2C36 19.448 35.552 19 35 19zM50 19c-.552 0-1 .448-1 1v2c0 .552.448 1 1 1s1-.448 1-1v-2C51 19.448 50.552 19 50 19zM55 19c-.552 0-1 .448-1 1v2c0 .552.448 1 1 1s1-.448 1-1v-2C56 19.448 55.552 19 55 19zM45 19c-.552 0-1 .448-1 1v2c0 .552.448 1 1 1s1-.448 1-1v-2C46 19.448 45.552 19 45 19zM30 19c-.552 0-1 .448-1 1v2c0 .552.448 1 1 1s1-.448 1-1v-2C31 19.448 30.552 19 30 19zM25 19c-.552 0-1 .448-1 1v2c0 .552.448 1 1 1s1-.448 1-1v-2C26 19.448 25.552 19 25 19z"/><path fill="none" stroke="#8d6c9f" stroke-linecap="round" stroke-miterlimit="10" stroke-width="2" d="M40 16L40 4M40 26L40 38"/></svg>