<svg xmlns="http://www.w3.org/2000/svg" viewBox="0 0 48 48" width="48px" height="48px"><path fill="#ffcc80" d="M10.115 15.736c.04.009.079.014.119.014.321 0 .639-.301.737-.727.08-.349-.012-.673-.201-.865-.071-.072-.154-.129-.252-.153-.04-.009-.079-.014-.119-.014-.321 0-.639.301-.737.727-.08.349.012.673.201.865C9.934 15.655 10.016 15.712 10.115 15.736zM13.211 14.339c-.064-.085-.145-.147-.24-.184-.04-.016-.079-.024-.119-.028-.316-.029-.652.269-.791.716-.113.365-.062.718.105.943.064.085.145.147.24.184.041.015.083.024.126.028.313.029.644-.249.782-.692C13.427 14.941 13.378 14.564 13.211 14.339zM14.459 16.886C14.563 16.964 14.687 17 14.819 17c.306 0 .655-.196.903-.539.332-.458.371-1.019.094-1.299-.02-.02-.047-.031-.07-.048C15.642 15.036 15.518 15 15.386 15c-.306 0-.655.196-.903.539-.332.458-.359 1.007-.082 1.288C14.42 16.847 14.436 16.869 14.459 16.886zM10.843 17c-1.373 0-2.767.775-4.106 2.192C4.18 21.901 2.999 24.196 3 26.17c0 1.07.116 1.973.933 2.902C4.479 29.693 5.333 30 6.266 30c1.05 0 1.867-.464 2.567-1.161.877-.872 1.05-1.973 2.333-3.018.504-.411 1.701-.464 2.333-.464 1 0 2.013-.121 2.567-.58.7-.58.934-1.321.933-2.152-.001-1.101-.51-2.496-1.998-3.985C14.118 17.757 12.5 17 10.843 17zM18.803 16.874c-.017-.019-.033-.058-.05-.077-.173-.173-.412-.257-.674-.257-.339 0-.716.141-1.038.41-.597.502-.779 1.272-.403 1.73.017.019.033.033.05.05.178.179.427.269.7.269.333 0 .699-.133 1.012-.395C18.997 18.104 19.181 17.333 18.803 16.874zM21.873 20.318c-.073-.162-.175-.306-.295-.427-.315-.318-.774-.49-1.274-.49-.328 0-.674.075-1.008.232-1.034.487-1.553 1.585-1.167 2.45.073.162.175.306.295.427.315.318.774.49 1.274.49.328 0 .675-.075 1.008-.232C21.739 22.282 22.259 21.183 21.873 20.318zM24.256 37.879c-.009-.04-.014-.079-.014-.119 0-.321.3-.639.727-.737.348-.08.673.012.865.201.072.071.129.154.153.252C25.995 37.516 26 37.556 26 37.596c0 .321-.3.639-.727.737-.348.08-.673-.012-.865-.201C24.337 38.06 24.28 37.978 24.256 37.879zM25.653 34.785c.085.064.147.145.184.24.016.04.024.079.028.119.029.316-.269.652-.715.791-.365.113-.717.062-.942-.105-.085-.064-.147-.145-.184-.24-.015-.041-.024-.083-.028-.126-.029-.313.248-.644.692-.782C25.051 34.569 25.427 34.618 25.653 34.785zM23.106 33.537c-.077-.104-.114-.228-.114-.359 0-.306.196-.655.539-.903.457-.332 1.019-.371 1.299-.093.02.02.031.047.048.07.077.103.114.227.114.359 0 .306-.196.655-.539.903-.457.332-1.007.359-1.287.082C23.145 33.576 23.123 33.56 23.106 33.537zM22.993 37.155c0 1.373-.775 2.767-2.191 4.106C18.094 43.82 15.8 45.001 13.828 45c-1.069 0-1.972-.116-2.9-.933C10.307 43.521 10 42.667 10 41.733c0-1.05.464-1.867 1.16-2.567.872-.877 1.972-1.05 3.016-2.334.41-.505.464-1.701.464-2.334 0-1 .121-2.014.58-2.567.58-.7 1.32-.934 2.151-.934 1.1.001 2.495.51 3.982 1.999C22.237 33.88 22.993 35.498 22.993 37.155zM23.118 29.195c.019.017.058.033.077.05.172.173.257.411.257.674 0 .339-.14.716-.41 1.038-.501.597-1.271.779-1.729.402-.019-.017-.033-.033-.05-.05-.179-.177-.268-.427-.268-.7 0-.332.133-.699.395-1.012C21.889 29.002 22.66 28.817 23.118 29.195zM19.676 26.127c.162.073.306.175.427.295.318.314.49.774.49 1.274 0 .328-.074.674-.232 1.008-.487 1.033-1.584 1.553-2.449 1.167-.162-.073-.306-.175-.427-.295-.318-.314-.49-.774-.49-1.274 0-.328.075-.675.232-1.008C17.714 26.261 18.811 25.742 19.676 26.127zM29.115 4.736c.04.009.079.014.119.014.321 0 .639-.301.737-.727.08-.349-.012-.673-.201-.865-.071-.072-.154-.129-.252-.153-.04-.009-.079-.014-.119-.014-.321 0-.639.301-.737.727-.08.349.012.673.201.865C28.934 4.655 29.016 4.712 29.115 4.736zM32.211 3.339c-.064-.085-.145-.147-.24-.184-.04-.016-.079-.024-.119-.028C31.535 3.098 31.2 3.396 31.06 3.843c-.113.365-.062.718.105.943.064.085.145.147.24.184.041.015.083.024.126.028.313.029.644-.249.782-.692C32.427 3.941 32.378 3.564 32.211 3.339zM33.459 5.886C33.563 5.964 33.687 6 33.819 6c.306 0 .655-.196.903-.539.332-.458.371-1.019.094-1.299-.02-.02-.047-.031-.07-.048C34.642 4.036 34.518 4 34.386 4c-.306 0-.655.196-.903.539-.332.458-.359 1.007-.082 1.288C33.42 5.847 33.436 5.869 33.459 5.886zM29.843 6c-1.373 0-2.767.775-4.106 2.192C23.18 10.901 21.999 13.196 22 15.17c0 1.07.116 1.973.933 2.902.546.621 1.4.929 2.333.929 1.05 0 1.867-.464 2.567-1.161.877-.872 1.05-1.973 2.333-3.018.504-.411 1.701-.464 2.333-.464 1 0 2.013-.121 2.567-.58.7-.58.934-1.321.933-2.152-.001-1.101-.51-2.496-1.998-3.985C33.118 6.757 31.5 6 29.843 6zM37.803 5.874c-.017-.019-.033-.058-.05-.077-.173-.173-.412-.257-.674-.257-.339 0-.716.141-1.038.41-.597.502-.779 1.272-.403 1.73.017.019.033.033.05.05C35.866 7.911 36.116 8 36.389 8c.333 0 .699-.133 1.012-.395C37.997 7.104 38.181 6.333 37.803 5.874zM40.873 9.318c-.073-.162-.175-.306-.295-.427-.315-.318-.774-.49-1.274-.49-.328 0-.674.075-1.008.232-1.034.487-1.553 1.585-1.167 2.45.073.162.175.306.295.427.315.318.774.49 1.274.49.328 0 .675-.075 1.008-.232C40.739 11.282 41.259 10.183 40.873 9.318zM43.256 26.879c-.009-.04-.014-.079-.014-.119 0-.321.3-.639.727-.737.348-.08.673.012.865.201.072.071.129.154.153.252C44.995 26.516 45 26.556 45 26.596c0 .321-.3.639-.727.737-.348.08-.673-.012-.865-.201C43.337 27.06 43.28 26.978 43.256 26.879zM44.653 23.785c.085.064.147.145.184.24.016.04.024.079.028.119.029.316-.269.652-.715.791-.365.113-.717.062-.942-.105-.085-.064-.147-.145-.184-.24-.015-.041-.024-.083-.028-.126-.029-.313.248-.644.692-.782C44.051 23.569 44.427 23.618 44.653 23.785zM42.106 22.537c-.077-.104-.114-.228-.114-.359 0-.306.196-.655.539-.903.457-.332 1.019-.371 1.299-.093.02.02.031.047.048.07.077.103.114.227.114.359 0 .306-.196.655-.539.903-.457.332-1.007.359-1.287.082C42.145 22.576 42.123 22.56 42.106 22.537zM41.993 26.155c0 1.373-.775 2.767-2.191 4.106C37.094 32.82 34.8 34.001 32.828 34c-1.069 0-1.972-.116-2.9-.933C29.307 32.521 29 31.667 29 30.733c0-1.05.464-1.867 1.16-2.567.872-.877 1.972-1.05 3.016-2.334.41-.505.464-1.701.464-2.334 0-1 .121-2.014.58-2.567.58-.7 1.32-.934 2.151-.934 1.1.001 2.495.51 3.982 1.999C41.237 22.88 41.993 24.498 41.993 26.155zM42.118 18.195c.019.017.058.033.077.05.172.173.257.411.257.674 0 .339-.14.716-.41 1.038-.501.597-1.271.779-1.729.402-.019-.017-.033-.033-.05-.05-.179-.177-.268-.427-.268-.7 0-.332.133-.699.395-1.012C40.889 18.002 41.66 17.817 42.118 18.195zM38.676 15.127c.162.073.306.175.427.295.318.314.49.774.49 1.274 0 .328-.074.674-.232 1.008-.487 1.033-1.584 1.553-2.449 1.167-.162-.073-.306-.175-.427-.295-.318-.314-.49-.774-.49-1.274 0-.328.075-.675.232-1.008C36.714 15.261 37.811 14.742 38.676 15.127z"/></svg>