<svg class="si66266fa35bc5b5000e629dd2ca2161a64f16403989bb63f4991d99211713794995047 svgIcon_1J7 darkTheme_3jZ" viewBox="0 0 32 32" xmlns="http://www.w3.org/2000/svg"><path class="logo_2gS" d="M13.9813982,8 C10.7833725,8 8.18702887,10.552157 8.18702887,13.7004613 L8.18702887,16.5541763 C8.18702887,19.0356952 9.79924077,21.1478688 12.0498345,21.9299559 L12.0498345,24 L14.0084401,22.2543208 L17.201315,22.2543208 C20.3993408,22.2543208 22.9956844,19.7024806 22.9956844,16.5541763 L22.9956844,13.7004613 C22.9956844,10.5527905 20.4012724,8 17.201315,8 L13.9813982,8 Z M17.188438,19.043931 C17.188438,19.043931 14.7865384,17.81996 13.4985073,16.5291521 C12.2111201,15.2383441 11.4063018,13.8135456 11.4063018,13.8135456 C11.1410337,13.0960781 11.1020805,12.4571677 11.6380895,11.9991289 L12.609666,11.1676269 L14.1578144,12.919958 C14.3908898,13.1841381 14.3648137,13.5826256 14.0950386,13.8135456 L13.6997119,14.1518481 C14.3557997,16.2488171 15.6106723,16.5592445 16.572591,16.8747402 L16.8008375,16.5291521 C16.9956035,16.2339292 17.3928618,16.1531548 17.6916103,16.3438459 L19.6701755,17.6080458 L18.9690178,18.6704678 C18.7227434,19.043931 18.3090669,19.2479262 17.8870202,19.2479262 C17.6471843,19.2479262 17.4044512,19.1820396 17.188438,19.043931 Z M17.4562815,14.6534101 C17.3155992,14.6534101 17.1865064,14.5621825 17.1465874,14.4224902 C17.0113779,13.950197 16.6292502,13.5735662 16.1495786,13.4392588 C15.9786352,13.3914276 15.8794816,13.2162578 15.9280926,13.0480569 C15.9767036,12.8792223 16.1547294,12.7813427 16.3259947,12.8298074 C17.0187823,13.0236661 17.5708876,13.5681812 17.7662974,14.2508048 C17.8145865,14.4193225 17.7147891,14.5941755 17.5438457,14.6416899 C17.5145503,14.649609 17.4852549,14.6534101 17.4562815,14.6534101 Z M18.7758936,14.7214824 C18.6352114,14.7214824 18.5064405,14.6302548 18.4661996,14.4905625 C18.1465258,13.3758746 17.2448074,12.4860882 16.1125891,12.1693255 C15.9416457,12.1214943 15.8424921,11.9463246 15.8911031,11.7781236 C15.9393922,11.6102394 16.11774,11.5114094 16.2886834,11.5601908 C17.6343394,11.9368217 18.7060354,12.9938588 19.0859096,14.3188771 C19.1341987,14.4870781 19.0347232,14.6622478 18.8634579,14.7097622 C18.8341625,14.7176813 18.8048671,14.7214824 18.7758936,14.7214824 Z M20.2712781,14.8581972 C20.1305959,14.8581972 20.001503,14.7669696 19.9615841,14.6272772 C19.4201023,12.7387381 17.8922354,11.2315812 15.9735487,10.6943517 C15.8029273,10.6465206 15.7037737,10.4713508 15.7520628,10.3031498 C15.8006738,10.1346321 15.9786996,10.0364356 16.1499649,10.0852171 C18.2817674,10.681998 19.979612,12.3567223 20.5812941,14.4555919 C20.6295832,14.6237928 20.5297857,14.7989626 20.3588423,14.846477 C20.3295469,14.8543961 20.3002516,14.8581972 20.2712781,14.8581972 Z"></path></svg>