<svg class="si66266fa35bc5b5000e629dd2ca2161a64f16403989bb63f4991d99211713794995047 svgIcon_1J7 darkTheme_3jZ" viewBox="0 0 32 32" xmlns="http://www.w3.org/2000/svg"><path class="logo_2gS" d="M18.1808786,16.8062016 C18.270457,16.8062016 18.6063709,16.9577935 19.1886305,17.2609819 C19.7708901,17.5641703 20.0792419,17.7467697 20.1136951,17.8087855 C20.1274764,17.8432388 20.1343669,17.8949178 20.1343669,17.9638243 C20.1343669,18.1912156 20.0757973,18.4530562 19.9586563,18.749354 C19.848406,19.0180892 19.6037917,19.2437545 19.2248062,19.4263566 C18.8458207,19.6089587 18.494403,19.7002584 18.1705426,19.7002584 C17.7777758,19.7002584 17.1231743,19.4866516 16.2067183,19.0594315 C15.531435,18.7493525 14.9457389,18.3428104 14.4496124,17.8397933 C13.9534859,17.3367761 13.4435857,16.6994009 12.9198966,15.9276486 C12.4237701,15.1903495 12.1791559,14.5219668 12.1860465,13.9224806 L12.1860465,13.8397933 C12.2067184,13.2127445 12.4616685,12.6683916 12.9509044,12.2067183 C13.1162799,12.0551241 13.295434,11.9793282 13.4883721,11.9793282 C13.529716,11.9793282 13.5917309,11.9844961 13.6744186,11.994832 C13.7571064,12.005168 13.8225665,12.0103359 13.870801,12.0103359 C14.0017233,12.0103359 14.093023,12.0327302 14.1447028,12.0775194 C14.1963827,12.1223086 14.2497844,12.2170535 14.3049096,12.3617571 C14.3600347,12.49957 14.4737287,12.8027539 14.6459948,13.2713178 C14.818261,13.7398818 14.9043928,13.9982771 14.9043928,14.0465116 C14.9043928,14.1912152 14.7855309,14.3893183 14.5478036,14.6408269 C14.3100763,14.8923355 14.1912145,15.0525406 14.1912145,15.121447 C14.1912145,15.1696816 14.2084408,15.2213606 14.2428941,15.2764858 C14.477176,15.7795029 14.8285937,16.2515051 15.2971576,16.6925065 C15.6830338,17.0577107 16.2032698,17.4056831 16.8578811,17.7364341 C16.9405689,17.7846686 17.0163649,17.8087855 17.0852713,17.8087855 C17.188631,17.8087855 17.3746757,17.6416899 17.6434109,17.3074935 C17.912146,16.9732972 18.0913002,16.8062016 18.1808786,16.8062016 Z M16.0826873,22.2842377 C16.9577994,22.2842377 17.7967229,22.1119742 18.5994832,21.7674419 C19.4022435,21.4229096 20.0930204,20.9612432 20.6718346,20.3824289 C21.2506489,19.8036147 21.7123152,19.1128378 22.0568475,18.3100775 C22.4013798,17.5073173 22.5736434,16.6683937 22.5736434,15.7932817 C22.5736434,14.9181696 22.4013798,14.079246 22.0568475,13.2764858 C21.7123152,12.4737255 21.2506489,11.7829486 20.6718346,11.2041344 C20.0930204,10.6253201 19.4022435,10.1636537 18.5994832,9.81912145 C17.7967229,9.47458915 16.9577994,9.30232558 16.0826873,9.30232558 C15.2075753,9.30232558 14.3686517,9.47458915 13.5658915,9.81912145 C12.7631312,10.1636537 12.0723543,10.6253201 11.4935401,11.2041344 C10.9147258,11.7829486 10.4530594,12.4737255 10.1085271,13.2764858 C9.76399483,14.079246 9.59173127,14.9181696 9.59173127,15.7932817 C9.59173127,17.1920828 10.0051638,18.4599426 10.8320413,19.5968992 L10.0155039,22.005168 L12.5167959,21.2093023 C13.6055179,21.9259295 14.7941365,22.2842377 16.0826873,22.2842377 Z M16.0826873,8 C17.1369562,8 18.144698,8.20671628 19.1059432,8.62015504 C20.0671883,9.0335938 20.895776,9.58828248 21.5917313,10.2842377 C22.2876865,10.980193 22.8423752,11.8087807 23.255814,12.7700258 C23.6692527,13.731271 23.875969,14.7390128 23.875969,15.7932817 C23.875969,16.8475505 23.6692527,17.8552924 23.255814,18.8165375 C22.8423752,19.7777826 22.2876865,20.6063703 21.5917313,21.3023256 C20.895776,21.9982808 20.0671883,22.5529695 19.1059432,22.9664083 C18.144698,23.379847 17.1369562,23.5865633 16.0826873,23.5865633 C14.7390114,23.5865633 13.4814873,23.2627078 12.3100775,22.6149871 L8,24 L9.40568475,19.8139535 C8.66149499,18.5874185 8.28940568,17.247208 8.28940568,15.7932817 C8.28940568,14.7390128 8.49612196,13.731271 8.90956072,12.7700258 C9.32299948,11.8087807 9.87768817,10.980193 10.5736434,10.2842377 C11.2695987,9.58828248 12.0981864,9.0335938 13.0594315,8.62015504 C14.0206766,8.20671628 15.0284185,8 16.0826873,8 Z"></path></svg>